<svg width="30" height="30" viewBox="0 0 30 30" fill="none" xmlns="http://www.w3.org/2000/svg">
<g clip-path="url(#clip0_1173_10437)">
<path d="M27.5577 17.5034C27.111 16.8867 26.8704 16.1447 26.8704 15.3832C26.8704 14.6217 27.111 13.8797 27.5577 13.263L28.4732 11.9981C28.5852 11.8436 28.6589 11.6648 28.6882 11.4763C28.7175 11.2878 28.7016 11.095 28.6419 10.9139C28.5815 10.7346 28.4806 10.5717 28.3468 10.438C28.2131 10.3042 28.0502 10.2032 27.8709 10.1429L26.3892 9.66102C25.6633 9.42688 25.0306 8.96816 24.5824 8.35106C24.1342 7.73396 23.8937 6.99041 23.8955 6.22772V4.66166C23.8954 4.47152 23.8502 4.28411 23.7638 4.11477C23.6773 3.94542 23.552 3.79895 23.3981 3.68732C23.2441 3.5757 23.066 3.50209 22.8782 3.47253C22.6903 3.44296 22.4982 3.45828 22.3174 3.51722L20.8236 3.99909C20.0984 4.23376 19.3176 4.23313 18.5928 3.99729C17.8679 3.76145 17.2362 3.30248 16.788 2.686L15.8724 1.4211C15.7555 1.27451 15.6071 1.15613 15.4382 1.07478C15.2692 0.993419 15.0842 0.951172 14.8967 0.951172C14.7092 0.951172 14.5241 0.993419 14.3551 1.07478C14.1862 1.15613 14.0378 1.27451 13.9209 1.4211L13.0053 2.686C12.5571 3.30248 11.9254 3.76145 11.2006 3.99729C10.4757 4.23313 9.6949 4.23376 8.9697 3.99909L7.47591 3.51722C7.29514 3.45828 7.10298 3.44296 6.91516 3.47253C6.72733 3.50209 6.54917 3.5757 6.39524 3.68732C6.24132 3.79895 6.116 3.94542 6.02954 4.11477C5.94308 4.28411 5.89794 4.47152 5.8978 4.66166V6.22772C5.89965 6.99041 5.65911 7.73396 5.2109 8.35106C4.76269 8.96816 4.13 9.42688 3.40414 9.66102L1.9224 10.1429C1.74314 10.2032 1.58026 10.3042 1.44651 10.438C1.31276 10.5717 1.21176 10.7346 1.15141 10.9139C1.09168 11.095 1.07582 11.2878 1.10514 11.4763C1.13446 11.6648 1.20812 11.8436 1.32007 11.9981L2.23561 13.263C2.68236 13.8797 2.92289 14.6217 2.92289 15.3832C2.92289 16.1447 2.68236 16.8867 2.23561 17.5034L1.32007 18.7683C1.20812 18.9228 1.13446 19.1016 1.10514 19.2901C1.07582 19.4786 1.09168 19.6713 1.15141 19.8525C1.21176 20.0318 1.31276 20.1946 1.44651 20.3284C1.58026 20.4621 1.74314 20.5631 1.9224 20.6235L3.40414 21.1054C4.13 21.3395 4.76269 21.7982 5.2109 22.4153C5.65911 23.0324 5.89965 23.776 5.8978 24.5387V26.1047C5.89794 26.2949 5.94308 26.4823 6.02954 26.6516C6.116 26.821 6.24132 26.9674 6.39524 27.0791C6.54917 27.1907 6.72733 27.2643 6.91516 27.2938C7.10298 27.3234 7.29514 27.3081 7.47591 27.2491L8.95765 26.7673C9.68439 26.5287 10.4682 26.5273 11.1958 26.7633C11.9234 26.9993 12.5571 27.4606 13.0053 28.0804L13.9209 29.3453C14.0333 29.4984 14.1803 29.6229 14.3498 29.7087C14.5193 29.7946 14.7067 29.8393 14.8967 29.8393C15.0867 29.8393 15.274 29.7946 15.4435 29.7087C15.613 29.6229 15.76 29.4984 15.8724 29.3453L16.788 28.0804C17.237 27.4614 17.8707 27.0009 18.5981 26.7649C19.3254 26.529 20.1088 26.5298 20.8357 26.7673L22.3174 27.2491C22.4982 27.3081 22.6903 27.3234 22.8782 27.2938C23.066 27.2643 23.2441 27.1907 23.3981 27.0791C23.552 26.9674 23.6773 26.821 23.7638 26.6516C23.8502 26.4823 23.8954 26.2949 23.8955 26.1047V24.5387C23.8937 23.776 24.1342 23.0324 24.5824 22.4153C25.0306 21.7982 25.6633 21.3395 26.3892 21.1054L27.8709 20.6235C28.0502 20.5631 28.2131 20.4621 28.3468 20.3284C28.4806 20.1946 28.5815 20.0318 28.6419 19.8525C28.7016 19.6713 28.7175 19.4786 28.6882 19.2901C28.6589 19.1016 28.5852 18.9228 28.4732 18.7683L27.5577 17.5034ZM20.5706 13.8256L14.5473 19.8489C14.3214 20.0747 14.015 20.2016 13.6956 20.2016C13.3762 20.2016 13.0698 20.0747 12.8439 19.8489L9.22991 16.2349C9.11485 16.1238 9.02307 15.9908 8.95994 15.8439C8.8968 15.6969 8.86357 15.5388 8.86218 15.3788C8.86079 15.2189 8.89127 15.0603 8.95184 14.9122C9.01241 14.7642 9.10186 14.6297 9.21497 14.5166C9.32808 14.4034 9.46259 14.314 9.61064 14.2534C9.75868 14.1929 9.91731 14.1624 10.0773 14.1638C10.2372 14.1652 10.3953 14.1984 10.5423 14.2615C10.6892 14.3247 10.8222 14.4164 10.9333 14.5315L13.692 17.2938L18.8636 12.1222C19.0908 11.9027 19.3951 11.7813 19.711 11.784C20.0268 11.7868 20.329 11.9135 20.5523 12.1368C20.7757 12.3602 20.9024 12.6623 20.9051 12.9782C20.9079 13.294 20.7865 13.5983 20.567 13.8256H20.5706Z" fill="#15B26C"/>
</g>
<defs>
<clipPath id="clip0_1173_10437">
<rect width="28.912" height="28.912" fill="white" transform="translate(0.44043 0.927734)"/>
</clipPath>
</defs>
</svg>
